<svg width="50" height="50" viewBox="0 0 50 50" fill="none" xmlns="http://www.w3.org/2000/svg">
<path d="M8.33301 37.5C8.33301 37.5 12.4997 37.5 12.4997 31.25V18.75C12.4997 18.75 12.4997 6.25 24.9997 6.25C37.4997 6.25 37.4997 18.75 37.4997 18.75V31.25C37.4997 37.5 41.6663 37.5 41.6663 37.5H8.33301Z" stroke="#E1711D" stroke-width="2" stroke-linecap="round" stroke-linejoin="round"/>
<path d="M28.6038 43.75C28.2293 44.374 27.707 44.8963 27.083 45.2708C26.4496 45.6365 25.7311 45.8291 24.9997 45.8291C24.2683 45.8291 23.5498 45.6365 22.9163 45.2708C22.2924 44.8963 21.7701 44.374 21.3955 43.75" stroke="#E1711D" stroke-width="2" stroke-linecap="round" stroke-linejoin="round"/>
<path d="M25 6.25002V4.16669" stroke="#E1711D" stroke-width="2" stroke-linecap="round" stroke-linejoin="round"/>
</svg>
