<svg width="52" height="52" viewBox="0 0 52 52" fill="none" xmlns="http://www.w3.org/2000/svg">
<path d="M9.33301 38.5C9.33301 38.5 13.4997 38.5 13.4997 32.25V19.75C13.4997 19.75 13.4997 7.25 25.9997 7.25C38.4997 7.25 38.4997 19.75 38.4997 19.75V32.25C38.4997 38.5 42.6663 38.5 42.6663 38.5H9.33301Z" stroke="#E1711D" stroke-width="2" stroke-linecap="round" stroke-linejoin="round"/>
<path d="M29.6038 44.75C29.2293 45.374 28.707 45.8963 28.083 46.2708C27.4496 46.6365 26.7311 46.8291 25.9997 46.8291C25.2683 46.8291 24.5498 46.6365 23.9163 46.2708C23.2924 45.8963 22.7701 45.374 22.3955 44.75" stroke="#E1711D" stroke-width="2" stroke-linecap="round" stroke-linejoin="round"/>
<path d="M26 7.25002V5.16669" stroke="#E1711D" stroke-width="2" stroke-linecap="round" stroke-linejoin="round"/>
<circle cx="26" cy="26" r="25.5" stroke="#C9C5C9"/>
</svg>
