<svg width="647" height="812" viewBox="0 0 647 812" fill="none" xmlns="http://www.w3.org/2000/svg">
<path d="M484.75 487.001C484.75 519.225 497.492 550.129 520.172 572.914C542.852 595.7 573.613 608.501 605.688 608.501C619.457 608.589 633.125 606.117 646 601.211V730C646 751.483 637.506 772.085 622.385 787.276C607.265 802.466 586.758 811 565.375 811H81.625C60.2419 811 39.7346 802.466 24.6145 787.276C9.49439 772.085 1 751.483 1 730V244.002C1 222.519 9.49439 201.917 24.6145 186.726C39.7346 171.536 60.2419 163.002 81.625 163.002H209.819C204.935 150.067 202.475 136.336 202.562 122.502C202.562 90.2782 215.304 59.3743 237.984 36.5887C260.664 13.8031 291.425 1.00227 323.5 1.00227C337.27 0.914317 350.937 3.38589 363.812 8.29225C387.337 16.6479 407.713 32.109 422.147 52.556C436.581 73.0029 444.367 97.4348 444.438 122.502C444.458 136.295 442.14 149.991 437.584 163.002H565.375C586.758 163.002 607.265 171.536 622.385 186.726C637.506 201.917 646 222.519 646 244.002V372.791C633.125 367.885 619.457 365.413 605.688 365.501C573.613 365.501 542.852 378.302 520.172 401.088C497.492 423.873 484.75 454.777 484.75 487.001Z" fill="#48464A" stroke="#FFFBFF" stroke-width="2" stroke-linecap="round" stroke-linejoin="round"/>
</svg>
