<svg width="668" height="534" viewBox="0 0 668 534" fill="none" xmlns="http://www.w3.org/2000/svg">
<path d="M304.3 351.867C300.667 358.997 300.667 368.33 300.667 387V447C300.667 465.67 300.667 475.003 304.3 482.133C307.497 488.407 312.593 493.503 318.867 496.7C325.997 500.333 335.33 500.333 354 500.333H414C432.67 500.333 442.003 500.333 449.133 496.7C455.407 493.503 460.503 488.407 463.7 482.133C467.333 475.003 467.333 465.67 467.333 447V387C467.333 368.33 467.333 358.997 463.7 351.867C460.503 345.593 455.407 340.497 449.133 337.3C442.003 333.667 432.67 333.667 414 333.667H354C335.33 333.667 325.997 333.667 318.867 337.3C312.593 340.497 307.497 345.593 304.3 351.867ZM304.3 351.867L191.953 189.472M200.667 117H467.333M87.3333 200.333H147.333C166.002 200.333 175.336 200.333 182.466 196.7C188.738 193.504 193.838 188.405 197.034 182.133C200.667 175.003 200.667 165.668 200.667 147V87C200.667 68.3316 200.667 58.9973 197.034 51.867C193.838 45.595 188.738 40.4956 182.466 37.2996C175.336 33.6666 166.002 33.6666 147.333 33.6666H87.3333C68.665 33.6666 59.3307 33.6666 52.2003 37.2996C45.9283 40.4956 40.829 45.595 37.633 51.867C34 58.9973 34 68.3316 34 87V147C34 165.668 34 175.003 37.633 182.133C40.829 188.405 45.9283 193.504 52.2003 196.7C59.3307 200.333 68.665 200.333 87.3333 200.333ZM520.667 200.333H580.667C599.337 200.333 608.67 200.333 615.8 196.7C622.073 193.504 627.17 188.405 630.367 182.133C634 175.003 634 165.668 634 147V87C634 68.3316 634 58.9973 630.367 51.867C627.17 45.595 622.073 40.4956 615.8 37.2996C608.67 33.6666 599.337 33.6666 580.667 33.6666H520.667C501.997 33.6666 492.663 33.6666 485.533 37.2996C479.26 40.4956 474.163 45.595 470.967 51.867C467.333 58.9973 467.333 68.3316 467.333 87V147C467.333 165.668 467.333 175.003 470.967 182.133C474.163 188.405 479.26 193.504 485.533 196.7C492.663 200.333 501.997 200.333 520.667 200.333Z" stroke="#48464A" stroke-width="66.6667" stroke-linecap="round" stroke-linejoin="round"/>
</svg>
