<svg width="602" height="530" viewBox="0 0 602 530" fill="none" xmlns="http://www.w3.org/2000/svg">
<path d="M600.225 106.525C611.95 67.45 512.725 4.94999 422.875 1.04999C248.65 -5.975 20.5252 85.425 1.77521 286.2C-12.2998 447.15 153.35 529.95 275.225 529.95C397.875 529.95 514.3 435.425 526.8 383.85C539.3 330.725 415.075 345.575 423.675 261.2C436.175 141.675 583.05 163.55 600.25 106.5L600.225 106.525ZM415.85 79.2C415.85 99.525 400.225 115.15 380.7 115.15C360.375 115.15 344.75 99.525 344.75 79.2C344.75 59.675 360.375 44.05 380.7 44.05C400.225 44.05 415.85 59.675 415.85 79.2ZM318.975 97.95C318.975 119.825 301.775 137.025 280.7 137.025C259.625 137.025 242.425 119.825 242.425 97.95C242.425 77.625 259.625 60.45 280.7 60.45C301.775 60.45 318.975 77.65 318.975 97.95ZM226 148.725C226 171.375 208.8 189.35 186.15 189.35C164.275 189.35 146.3 171.375 146.3 148.725C146.3 127.625 164.275 110.45 186.15 110.45C208.8 110.45 226 127.65 226 148.725ZM147.875 237.775C147.875 260.425 129.125 279.175 106.475 279.175C82.2502 279.175 63.5002 260.425 63.5002 237.775C63.5002 213.55 82.2502 194.8 106.475 194.8C129.125 194.8 147.875 213.55 147.875 237.775ZM362.725 387.775C362.725 417.475 337.725 441.675 307.25 441.675C277.55 441.675 253.35 417.45 253.35 387.775C253.35 357.3 277.575 331.525 307.25 331.525C337.725 331.525 362.725 357.3 362.725 387.775Z" fill="#48464A"/>
</svg>
