<svg width="800" height="800" viewBox="0 0 800 800" fill="none" xmlns="http://www.w3.org/2000/svg">
<path d="M492.559 181.159C484.846 189.027 480.526 199.606 480.526 210.625C480.526 221.643 484.846 232.222 492.559 240.091L559.909 307.442C567.778 315.154 578.357 319.474 589.375 319.474C600.394 319.474 610.973 315.154 618.841 307.442L777.537 148.746C798.703 195.521 805.112 247.635 795.909 298.145C786.706 348.654 762.329 395.159 726.025 431.463C689.722 467.766 643.216 492.144 592.707 501.347C542.198 510.55 490.083 504.141 443.308 482.975L152.437 773.846C135.691 790.592 112.978 800 89.2954 800C65.6128 800 42.9002 790.592 26.154 773.846C9.40788 757.1 0 734.387 0 710.705C0 687.022 9.40788 664.309 26.154 647.563L317.025 356.692C295.859 309.917 289.45 257.802 298.653 207.293C307.856 156.784 332.234 110.278 368.537 73.9749C404.841 37.6714 451.346 13.2938 501.855 4.0909C552.365 -5.11203 604.479 1.29678 651.254 22.4633L492.979 180.738L492.559 181.159Z" fill="#48464A"/>
</svg>
