<svg width="717" height="804" viewBox="0 0 717 804" fill="none" xmlns="http://www.w3.org/2000/svg">
<path d="M546.92 238.224C542.487 231.384 537.115 226.721 532.111 223.566C532.086 215.075 531.526 203.067 529.505 189.218C530.871 172.693 535.64 81.7028 479.968 40.6784C445.63 15.3735 407.395 2 369.397 2C338.514 2 309.103 10.7766 286.576 26.712C266.289 41.0663 255.115 56.6797 249.201 67.6705C231.706 68.2891 195.462 75.4223 179.431 121.637C164.264 165.351 176.51 192.358 185.517 204.875C184.928 212.114 184.716 218.479 184.701 223.563C179.698 226.717 174.325 231.38 169.893 238.221C159.865 253.699 158.159 274.454 164.82 299.924C177.275 347.547 206.339 358.029 221.846 360.134C231.399 379.231 252.392 418.261 273.4 437.871C281.792 445.704 292.703 452.313 305.827 457.525C322.579 464.172 340.271 467.542 358.406 467.542C376.541 467.542 394.234 464.172 410.985 457.525C424.11 452.313 435.02 445.704 443.412 437.871C464.421 418.261 485.414 379.231 494.966 360.134C510.47 358.029 539.534 347.544 551.992 299.92C558.653 274.458 556.948 253.699 546.92 238.224ZM516.582 290.664C508.991 319.695 495.424 324.028 488.009 324.028C487.482 324.028 487.087 323.999 486.852 323.981C478.383 321.84 470.551 326.29 466.847 334.258C459.6 349.835 436.77 394.01 418.441 411.121C413.401 415.824 406.348 419.996 397.484 423.513C372.611 433.384 344.198 433.384 319.329 423.513C310.465 419.996 303.412 415.824 298.372 411.121C280.043 394.01 257.212 349.835 249.966 334.258C246.884 327.633 240.958 323.45 234.176 323.45C232.8 323.45 231.388 323.622 229.957 323.984C229.722 324.006 229.327 324.032 228.804 324.032C221.392 324.032 207.825 319.695 200.23 290.672C196.494 276.387 196.527 264.993 200.318 258.596C202.525 254.877 205.658 253.625 206.683 253.303C216.503 252.238 222.417 243.641 221.597 233.734C221.579 233.492 220.938 224.986 221.751 212.041C234.345 206.628 254.467 195.952 271.431 177.63C280.065 168.301 286.382 156.871 290.88 146.385C303.145 156.399 320.507 168.166 343.481 178.333C382.829 195.747 461.467 204.029 494.663 206.859C496.035 222.659 495.234 233.441 495.212 233.697C494.348 243.634 500.273 252.238 510.126 253.303C511.151 253.625 514.284 254.881 516.491 258.596C520.286 264.99 520.319 276.383 516.582 290.664ZM633.935 535.072L473.94 471.078C469.336 469.241 464.186 469.347 459.655 471.371C455.132 473.402 451.622 477.183 449.938 481.846L409.719 593.042L401.755 570.146L414.426 539.171C416.731 533.528 416.08 527.105 412.68 522.039C409.28 516.977 403.585 513.94 397.487 513.94H319.329C313.231 513.94 307.533 516.977 304.136 522.039C300.736 527.105 300.085 533.528 302.391 539.171L315.061 570.146L307.097 593.042L266.878 481.846C265.195 477.183 261.685 473.398 257.161 471.371C252.63 469.343 247.477 469.237 242.876 471.078L82.8777 535.072C33.7464 554.722 2 601.618 2 654.537V783.7C2 793.809 10.1946 802 20.2998 802H696.513C706.618 802 714.813 793.809 714.813 783.7V654.537C714.813 601.618 683.066 554.726 633.935 535.072ZM628.375 707.339C628.375 717.448 620.181 725.639 610.076 725.639H487.211C477.106 725.639 468.911 717.448 468.911 707.339V650.28C468.911 640.171 477.106 631.981 487.211 631.981H610.076C620.181 631.981 628.375 640.171 628.375 650.28V707.339Z" fill="#48464A" stroke="#48464A" stroke-width="3.65995"/>
</svg>
