<svg width="800" height="800" viewBox="0 0 800 800" fill="none" xmlns="http://www.w3.org/2000/svg">
<path d="M777.452 336.197L690.975 315.784C684.675 293.994 676.139 273.175 665.388 253.703L712.028 178.23C719.169 166.672 717.422 151.752 707.828 142.158L657.844 92.1734C648.267 82.5969 633.347 80.8484 621.787 87.9891L546.331 134.631C526.859 123.878 506.042 115.344 484.25 109.042L463.837 22.5297C460.712 9.34063 448.916 0 435.359 0H364.677C351.117 0 339.322 9.34063 336.197 22.5297L315.784 109.042C293.994 115.342 273.175 123.861 253.703 134.631L178.23 87.9563C166.688 80.8484 151.752 82.5797 142.158 92.1734L92.1719 142.141C82.5938 151.734 80.8469 166.686 87.9703 178.214L134.63 253.703C123.877 273.175 115.342 293.994 109.056 315.767L22.5281 336.181C9.34063 339.32 0 351.1 0 364.675V435.341C0 448.9 9.34063 460.711 22.5297 463.819L109.058 484.233C115.358 506.023 123.878 526.825 134.631 546.28L87.9563 621.786C80.8484 633.345 82.5797 648.281 92.1734 657.877L142.141 707.844C151.734 717.438 166.686 719.183 178.214 712.044L253.719 665.369C273.192 676.122 294.009 684.656 315.784 690.941L336.197 777.45C339.322 790.673 351.117 799.998 364.677 799.998H435.359C448.917 799.998 460.712 790.673 463.837 777.45L484.25 690.941C506.027 684.658 526.842 676.122 546.3 665.369L621.787 712.027C633.347 719.167 648.267 717.42 657.861 707.827L707.844 657.842C717.422 648.266 719.169 633.33 712.028 621.769L665.37 546.297C676.141 526.841 684.659 506.025 690.959 484.233L777.469 463.819C790.692 460.692 800 448.914 800 435.341V364.656C800 351.116 790.675 339.32 777.452 336.197ZM400.009 473.598C359.381 473.598 326.419 440.634 326.419 399.992C326.419 359.35 359.383 326.386 400.009 326.386C440.652 326.386 473.616 359.35 473.616 399.992C473.616 440.634 440.652 473.598 400.009 473.598Z" fill="#48464A"/>
</svg>
