<svg width="54" height="54" viewBox="0 0 54 54" fill="none" xmlns="http://www.w3.org/2000/svg">
<path d="M49.5 27H36L31.5 33.75H22.5L18 27H4.5" stroke="#48464A" stroke-width="4" stroke-linecap="round" stroke-linejoin="round"/>
<path d="M12.2625 11.4975L4.5 27V40.5C4.5 41.6935 4.97411 42.8381 5.81802 43.682C6.66193 44.5259 7.80653 45 9 45H45C46.1935 45 47.3381 44.5259 48.182 43.682C49.0259 42.8381 49.5 41.6935 49.5 40.5V27L41.7375 11.4975C41.3649 10.7478 40.7906 10.1168 40.0792 9.67563C39.3677 9.23442 38.5472 9.00044 37.71 9H16.29C15.4528 9.00044 14.6323 9.23442 13.9209 9.67563C13.2094 10.1168 12.635 10.7478 12.2625 11.4975V11.4975Z" stroke="#48464A" stroke-width="4" stroke-linecap="round" stroke-linejoin="round"/>
</svg>
