<svg width="33" height="34" viewBox="0 0 33 34" fill="none" xmlns="http://www.w3.org/2000/svg">
<path fill-rule="evenodd" clip-rule="evenodd" d="M26.1685 20.9602C26.3584 20.2249 27.1083 19.7827 27.8436 19.9726C29.3185 20.3534 30.6252 21.2133 31.5584 22.4172C32.4917 23.6211 32.9987 25.1009 32.9998 26.6241L32.9998 29.3752C32.9998 30.1346 32.3842 30.7502 31.6248 30.7502C30.8655 30.7502 30.2498 30.1346 30.2498 29.3752L30.2498 26.6262C30.2498 26.6261 30.2498 26.6263 30.2498 26.6262C30.2491 25.7124 29.9449 24.8243 29.385 24.102C28.825 23.3797 28.041 22.8638 27.1561 22.6353C26.4208 22.4454 25.9787 21.6954 26.1685 20.9602Z" fill="#FFFBFF"/>
<path fill-rule="evenodd" clip-rule="evenodd" d="M2.01364 21.7636C3.30295 20.4743 5.05164 19.75 6.875 19.75H17.875C19.6984 19.75 21.447 20.4743 22.7364 21.7636C24.0257 23.053 24.75 24.8016 24.75 26.625V29.375C24.75 30.1344 24.1344 30.75 23.375 30.75C22.6156 30.75 22 30.1344 22 29.375V26.625C22 25.531 21.5654 24.4818 20.7918 23.7082C20.0182 22.9346 18.969 22.5 17.875 22.5H6.875C5.78098 22.5 4.73177 22.9346 3.95818 23.7082C3.1846 24.4818 2.75 25.531 2.75 26.625V29.375C2.75 30.1344 2.13439 30.75 1.375 30.75C0.615608 30.75 0 30.1344 0 29.375V26.625C0 24.8016 0.724329 23.053 2.01364 21.7636Z" fill="#FFFBFF"/>
<path fill-rule="evenodd" clip-rule="evenodd" d="M20.6678 4.46287C20.8562 3.72721 21.6052 3.28353 22.3409 3.47189C23.8197 3.85053 25.1305 4.71059 26.0665 5.91648C27.0026 7.12238 27.5106 8.6055 27.5106 10.132C27.5106 11.6586 27.0026 13.1417 26.0665 14.3476C25.1305 15.5535 23.8197 16.4136 22.3409 16.7922C21.6052 16.9806 20.8562 16.5369 20.6678 15.8012C20.4795 15.0656 20.9231 14.3165 21.6588 14.1281C22.5461 13.901 23.3325 13.3849 23.8942 12.6614C24.4558 11.9378 24.7606 11.048 24.7606 10.132C24.7606 9.21612 24.4558 8.32624 23.8942 7.60271C23.3325 6.87917 22.5461 6.36314 21.6588 6.13595C20.9231 5.94759 20.4795 5.19853 20.6678 4.46287Z" fill="#FFFBFF"/>
<path fill-rule="evenodd" clip-rule="evenodd" d="M12.375 6C10.0968 6 8.25 7.84683 8.25 10.125C8.25 12.4032 10.0968 14.25 12.375 14.25C14.6532 14.25 16.5 12.4032 16.5 10.125C16.5 7.84683 14.6532 6 12.375 6ZM5.5 10.125C5.5 6.32804 8.57804 3.25 12.375 3.25C16.172 3.25 19.25 6.32804 19.25 10.125C19.25 13.922 16.172 17 12.375 17C8.57804 17 5.5 13.922 5.5 10.125Z" fill="#FFFBFF"/>
</svg>
