<svg width="45" height="45" viewBox="0 0 45 45" fill="none" xmlns="http://www.w3.org/2000/svg">
<g clip-path="url(#clip0_57_445)">
<path d="M30 41.2508V33.9946C30.0703 33.1005 29.9495 32.2017 29.6457 31.3579C29.3418 30.5141 28.8617 29.7447 28.2375 29.1008C34.125 28.4446 40.3125 26.2133 40.3125 15.9758C40.312 13.358 39.305 10.8405 37.5 8.94455C38.3547 6.65425 38.2943 4.1227 37.3312 1.8758C37.3312 1.8758 35.1188 1.21955 30 4.6508C25.7025 3.48609 21.1725 3.48609 16.875 4.6508C11.7562 1.21955 9.54375 1.8758 9.54375 1.8758C8.58071 4.1227 8.52027 6.65425 9.375 8.94455C7.55649 10.8546 6.54848 13.3948 6.5625 16.0321C6.5625 26.1946 12.75 28.4258 18.6375 29.1571C18.0206 29.7945 17.5449 30.5547 17.2412 31.3882C16.9375 32.2216 16.8128 33.1097 16.875 33.9946V41.2508M16.875 35.6258C7.5 38.4383 7.5 30.9383 3.75 30.0008L16.875 35.6258Z" stroke="#48464A" stroke-width="4" stroke-linecap="round" stroke-linejoin="round"/>
</g>
<defs>
<clipPath id="clip0_57_445">
<rect width="45" height="45" fill="white"/>
</clipPath>
</defs>
</svg>
